# File produced by Open Asset Import Library (http://www.assimp.sf.net)
# (assimp v3.2.202087883)

mtllib model_normalized.mtl

# 124 vertex positions
v -0.190932 -0.207194 0.394059
v 0.191111 -0.207194 -0.083495
v 0.191111 -0.207194 0.394059
v -0.190932 -0.207194 -0.083495
v 0.191111 -0.168990 0.012016
v 0.191111 -0.168990 -0.083495
v 0.191111 0.193951 0.031118
v 0.191111 0.193951 0.394059
v 0.191111 0.193951 0.012016
v 0.238750 0.134402 0.394059
v -0.190932 0.193951 0.394059
v -0.238571 0.134402 0.394059
v -0.190932 0.193951 0.031118
v 0.238750 0.134402 -0.131250
v -0.190932 0.193951 0.012016
v 0.246208 0.140369 -0.131250
v 0.246208 0.140369 0.394059
v 0.000090 0.432727 0.012016
v -0.238571 0.134402 -0.131250
v -0.246028 0.140369 0.394059
v 0.000090 0.432727 -0.131250
v 0.000090 0.448017 -0.131250
v -0.246028 0.140369 -0.131250
v -0.190932 -0.168990 -0.083495
v -0.190932 -0.168990 0.012016
v 0.000090 0.448017 0.394059
v -0.011016 0.434135 0.394059
v 0.016632 -0.092581 0.012016
v -0.004854 -0.101482 0.012016
v 0.013597 -0.096538 0.012016
v 0.018541 -0.087974 0.012016
v -0.016453 -0.092581 0.012016
v -0.009462 -0.099573 0.012016
v 0.000090 -0.102132 0.012016
v 0.009641 -0.099573 0.012016
v 0.013597 -0.096538 -0.179005
v 0.016632 -0.092581 -0.179005
v 0.019192 -0.083030 0.012016
v -0.013418 -0.096538 0.012016
v -0.018361 -0.087974 0.012016
v -0.004854 -0.101482 -0.179005
v 0.000090 -0.102132 -0.179005
v 0.005034 -0.101482 0.012016
v 0.018541 -0.087974 -0.179005
v 0.018541 -0.078086 0.012016
v 0.003694 0.069674 0.012016
v -0.016453 -0.092581 -0.179005
v -0.019013 -0.083030 0.012016
v -0.018361 -0.087974 -0.179005
v -0.009462 -0.099573 -0.179005
v 0.005034 -0.101482 -0.179005
v 0.009641 -0.099573 -0.179005
v 0.019192 -0.083030 -0.179005
v 0.016632 -0.073479 0.012016
v 0.018374 0.066792 0.012016
v -0.011232 0.068658 0.012016
v -0.013418 -0.096538 -0.179005
v -0.018361 -0.078086 0.012016
v -0.019013 -0.083030 -0.179005
v 0.018541 -0.078086 -0.179005
v 0.047818 -0.019237 0.012016
v 0.031807 0.060209 0.012016
v 0.003694 0.069674 0.031118
v -0.025385 0.063813 0.012016
v -0.011232 0.068658 0.031118
v -0.016453 -0.073479 0.012016
v -0.018361 -0.078086 -0.179005
v 0.016632 -0.073479 -0.179005
v 0.013597 -0.069523 0.012016
v 0.054401 -0.005804 0.012016
v 0.043080 0.050373 0.012016
v 0.018374 0.066792 0.031118
v -0.037803 0.055470 0.012016
v -0.025385 0.063813 0.031118
v -0.013418 -0.069523 0.012016
v -0.016453 -0.073479 -0.179005
v 0.009641 -0.066487 0.012016
v 0.054401 -0.005804 0.031118
v 0.057282 0.008876 0.012016
v 0.051422 0.037955 0.012016
v 0.031807 0.060209 0.031118
v -0.047639 0.044198 0.012016
v -0.037803 0.055470 0.031118
v -0.042900 -0.025413 0.012016
v -0.013418 -0.069523 -0.179005
v 0.013597 -0.069523 -0.179005
v 0.009641 -0.066487 -0.179005
v 0.037983 -0.030510 0.012016
v 0.047818 -0.019237 0.031118
v 0.057282 0.008876 0.031118
v 0.056266 0.023802 0.012016
v 0.043080 0.050373 0.031118
v -0.054222 0.030765 0.012016
v -0.051244 -0.012994 0.012016
v -0.009462 -0.066487 0.012016
v 0.005034 -0.064579 -0.179005
v 0.005034 -0.064579 0.012016
v 0.056266 0.023802 0.031118
v 0.051422 0.037955 0.031118
v -0.057104 0.016085 0.012016
v -0.047639 0.044198 0.031118
v -0.056088 0.001158 0.012016
v -0.051244 -0.012994 0.031118
v -0.004854 -0.064579 0.012016
v -0.009462 -0.066487 -0.179005
v -0.004854 -0.064579 -0.179005
v 0.000090 -0.063928 0.012016
v 0.037983 -0.030510 0.031118
v -0.054222 0.030765 0.031118
v -0.056088 0.001158 0.031118
v -0.042900 -0.025413 0.031118
v 0.000090 -0.063928 -0.179005
v 0.025565 -0.038852 0.012016
v -0.057104 0.016085 0.031118
v -0.031628 -0.035248 0.031118
v -0.031628 -0.035248 0.012016
v 0.011411 -0.043697 0.012016
v 0.025565 -0.038852 0.031118
v -0.018195 -0.041831 0.012016
v -0.003515 -0.044713 0.012016
v -0.018195 -0.041831 0.031118
v 0.011411 -0.043697 0.031118
v -0.003515 -0.044713 0.031118
v 0.000090 0.432727 0.031118

# 191 UV coordinates
vt -0.328084 0.328084 0
vt 0 -0.082021 0
vt 0 0.328084 0
vt -0.328084 -0.082021 0
vt 0.082021 -0 0
vt 0 0.032808 0
vt -0.328084 0 0
vt 0.082021 0.032808 0
vt -0.016404 0.344488 0
vt -0.328084 0.344488 0
vt 0 0.344488 0
vt -0.328084 0.269 0
vt -0.016404 0.269 0
vt -0.328084 0.203511 0
vt 0 0.269 0
vt 0.328084 0.064048 0
vt 0.328084 -0.001441 0
vt 0.016404 0.064048 0
vt 0.123031 0.203511 0
vt -0 0.064048 0
vt -0.328084 0.2152 0
vt 0.123031 0.223402 0
vt -0.328084 0.223402 0
vt 0 0.531595 0
vt 0.123031 0.2152 0
vt -0.123031 -0.001441 0
vt 0.328084 0.479593 0
vt -0.123031 0.471391 0
vt 0.328084 0.471391 0
vt -0.123031 0.326643 0
vt -0 0.326643 0
vt 0.123031 0.531595 0
vt 0.164042 0.549541 0
vt -0.047315 0.298474 0
vt -0.04091 0.29335 0
vt 0.164042 0.56267 0
vt -0.123031 0.479593 0
vt 0.375399 0.298474 0
vt 0.368994 0.29335 0
vt 0 0 0
vt 0.328084 0 0
vt -0.082021 0.032808 0
vt -0.082021 0 0
vt 0.328084 0.032808 0
vt 0.328084 -0.082021 0
vt -0.164042 0.56267 0
vt 0.016404 0.344488 0
vt 0.328084 0.344488 0
vt 0.149836 0.098425 0
vt 0.047315 0.298474 0
vt -0.173579 0.55075 0
vt 0.04091 0.29335 0
vt 0.168288 0.090782 0
vt 0.152442 0.095028 0
vt 0.148197 0.102382 0
vt -0.375399 0.298474 0
vt -0.368994 0.29335 0
vt 0.178248 0.098425 0
vt 0.172244 0.092421 0
vt 0.164042 0.090223 0
vt 0.15584 0.092421 0
vt 0.038651 0 0
vt 0.042946 0.164042 0
vt 0.038651 0.164042 0
vt 0.042946 0 0
vt 0.047241 0.164042 0
vt 0.147638 0.106627 0
vt 0.175642 0.095028 0
vt 0.179887 0.102382 0
vt 0.017178 0.164042 0
vt 0.021473 0 0
vt 0.021473 0.164042 0
vt 0.025768 -0 0
vt 0.025768 0.164042 0
vt 0.159796 0.090782 0
vt 0.034357 0.164042 0
vt 0.047241 0 0
vt 0.051535 0.164042 0
vt 0.148197 0.110873 0
vt 0.160947 0.237763 0
vt 0.008589 0 0
vt 0.012884 0.164042 0
vt 0.008589 0.164042 0
vt 0.180446 0.106627 0
vt 0.004295 0 0
vt 0.004295 0.164042 0
vt 0.017178 0 0
vt 0.030062 0 0
vt 0.030062 0.164042 0
vt 0.034357 0 0
vt 0.051535 -0 0
vt 0.05583 0.164042 0
vt 0.149836 0.114829 0
vt 0.14834 0.235289 0
vt 0.173764 0.236891 0
vt 0.012884 0 0
vt 0.179887 0.110873 0
vt 0 0.164042 0
vt 0.05583 0 0
vt 0.060125 0.164042 0
vt 0.123055 0.16141 0
vt 0.136804 0.229636 0
vt 0.16749 -0.016404 0
vt 0.154606 0 0
vt 0.154606 -0.016404 0
vt 0.185919 0.232731 0
vt 0.141722 0 0
vt 0.141722 -0.016404 0
vt 0.178248 0.114829 0
vt 0.098776 -0 0
vt 0.103071 0.164042 0
vt 0.098776 0.164042 0
vt 0.103071 -0 0
vt 0.060125 0 0
vt 0.152442 0.118227 0
vt 0.117401 0.172947 0
vt 0.127124 0.221189 0
vt 0.180374 -0.016404 0
vt 0.16749 0 0
vt 0.196583 0.225567 0
vt 0.128838 0 0
vt 0.128838 -0.016404 0
vt 0.175642 0.118227 0
vt 0.094481 0 0
vt 0.094481 0.164042 0
vt 0.064419 0.164042 0
vt 0.15584 0.120834 0
vt 0.257677 -0.016404 0
vt 0.244793 0 0
vt 0.244793 -0.016404 0
vt 0.114927 0.185553 0
vt 0.119959 0.210525 0
vt 0.193257 -0.016404 0
vt 0.180374 0 0
vt 0.205029 0.215886 0
vt 0.115954 0 0
vt 0.115954 -0.016404 0
vt 0.20096 0.156107 0
vt 0.090187 0 0
vt 0.090187 0.164042 0
vt 0.064419 0 0
vt 0.068714 0 0
vt 0.068714 0.164042 0
vt 0.131501 0.15173 0
vt 0.257677 0 0
vt 0.231909 0 0
vt 0.231909 -0.016404 0
vt 0.115799 0.198371 0
vt 0.206141 -0.016404 0
vt 0.193257 0 0
vt 0.210683 0.20435 0
vt 0.103071 -0.016404 0
vt 0.208125 0.166771 0
vt 0.172244 0.120834 0
vt 0.085892 0.164042 0
vt 0.073008 0 0
vt 0.159796 0.122473 0
vt 0.27056 -0.016404 0
vt 0.219025 -0 0
vt 0.219025 -0.016404 0
vt 0.206141 -0 0
vt 0.213157 0.191743 0
vt 0.090187 -0.016404 0
vt 0.212285 0.178926 0
vt 0.038651 -0.016404 0
vt 0.051535 -0.016404 0
vt 0.168288 0.122473 0
vt 0.085892 0 0
vt 0.073008 0.164042 0
vt 0.164042 0.123031 0
vt 0.27056 0 0
vt 0.077303 -0.016404 0
vt 0.064419 -0.016404 0
vt 0.081598 0.164042 0
vt 0.077303 0 0
vt 0.077303 0.164042 0
vt 0.142165 0.144566 0
vt 0.283444 -0.016404 0
vt 0.19128 0.147661 0
vt 0.081598 -0 0
vt 0.15432 0.140406 0
vt 0.283444 0 0
vt 0.025768 -0.016404 0
vt 0.179744 0.142008 0
vt 0.167137 0.139533 0
vt 0.296328 -0.016404 0
vt 0.012884 -0.016404 0
vt 0.309212 -0.016404 0
vt 0.296328 0 0
vt -0 -0.016404 0
vt 0.309212 0 0

# 58 vertex normals
vn 0 -0.001 0
vn 0.001 0 0
vn -0.000780869 -0.000624695 0
vn 0.000780869 -0.000624695 0
vn 0.000624695 -0.000780869 0
vn -0.000624695 -0.000780869 0
vn 0 0 -0.001
vn 0 0.001 0
vn -0.001 0 0
vn 0 0 0.001
vn 0.000707107 -0.000707107 0
vn 0.000866025 -0.0005 0
vn 0.000965926 -0.000258819 0
vn -0.0005 -0.000866025 0
vn -0.000258819 -0.000965926 0
vn 0.0005 -0.000866025 0
vn -0.000866025 -0.0005 0
vn -0.000707107 -0.000707107 0
vn -0.000965926 -0.000258819 0
vn 0.000258819 -0.000965926 0
vn 0.000965926 0.000258819 0
vn 0.000866025 0.0005 0
vn -0.000319056 -0.000947736 0
vn -6.2893e-05 -0.00099802 0
vn 0.000197557 -0.000980291 0
vn -0.000965926 0.000258819 0
vn -0.000553477 -0.000832865 0
vn 0.000444544 -0.000895757 0
vn -0.000866025 0.0005 0
vn 0.000707107 0.000707107 0
vn -0.000832865 0.000553477 0
vn -0.000947736 0.000319056 0
vn -0.000750179 -0.000661235 0
vn 0.000661235 -0.000750179 0
vn -0.000707107 0.000707107 0
vn 0.0005 0.000866025 0
vn -0.00099802 6.2893e-05 0
vn -0.000895757 -0.000444544 0
vn 0.000832865 -0.000553477 0
vn -0.0005 0.000866025 0
vn 0.000258819 0.000965926 0
vn -0.000661235 0.000750179 0
vn -0.000980291 -0.000197557 0
vn 0.000947736 -0.000319056 0
vn 0.000895757 0.000444544 0
vn 0.000750179 0.000661235 0
vn 0.00099802 -6.2893e-05 0
vn 0.000980291 0.000197557 0
vn -0.000258819 0.000965926 0
vn -0.000444544 0.000895757 0
vn 0.000553477 0.000832865 0
vn -0.000197557 0.000980291 0
vn 0.000319056 0.000947736 0
vn 6.2893e-05 0.00099802 0
vn 0.000780869 0.000624695 0
vn -0.000780869 0.000624695 0
vn -0.000624695 0.000780869 0
vn 0.000624695 0.000780869 0

# Mesh 'mesh1_mesh1-geometry' with 25 faces
g mesh1_mesh1-geometry
usemtl material_0_1_8
f  1/1/1 2/2/1 3/3/1
f  2/2/1 1/1/1 4/4/1
f  2/5/2 5/6/2 3/7/2
f  5/6/2 2/5/2 6/8/2
f  3/7/2 5/6/2 7/9/2
f  3/7/2 7/9/2 8/10/2
f  7/9/2 5/6/2 9/11/2
f  8/12/3 7/13/3 10/14/3
f  7/13/3 9/15/3 10/14/3
f  11/16/4 12/17/4 13/18/4
f  10/14/3 9/15/3 14/19/3
f  13/18/4 12/17/4 15/20/4
f  10/21/5 16/22/5 17/23/5
f  9/15/3 18/24/3 14/19/3
f  16/22/5 10/21/5 14/25/5
f  12/17/4 19/26/4 15/20/4
f  20/27/6 19/28/6 12/29/6
f  15/20/4 21/30/4 18/31/4
f  21/32/3 14/19/3 18/24/3
f  21/33/7 16/34/7 14/35/7
f  16/34/7 21/33/7 22/36/7
f  21/30/4 15/20/4 19/26/4
f  19/28/6 20/27/6 23/37/6
f  21/33/7 23/38/7 22/36/7
f  23/38/7 21/33/7 19/39/7

# Mesh 'mesh1_mesh1-geometry' with 25 faces
g mesh1_mesh1-geometry
usemtl material_1_24
f  3/40/8 2/40/8 1/40/8
f  4/40/8 1/40/8 2/40/8
f  3/40/9 5/40/9 2/40/9
f  3/40/7 1/40/7 8/40/7
f  4/40/2 24/40/2 1/40/2
f  6/40/9 2/40/9 5/40/9
f  7/40/9 5/40/9 3/40/9
f  11/40/7 8/40/7 1/40/7
f  8/40/9 7/40/9 3/40/9
f  25/40/2 1/40/2 24/40/2
f  9/40/9 5/40/9 7/40/9
f  11/40/7 26/40/7 8/40/7
f  11/40/2 1/40/2 13/40/2
f  13/40/2 1/40/2 25/40/2
f  26/40/7 17/40/7 8/40/7
f  27/40/7 26/40/7 11/40/7
f  10/40/7 8/40/7 17/40/7
f  25/40/2 15/40/2 13/40/2
f  17/40/3 26/40/3 16/40/3
f  27/40/4 20/40/4 26/40/4
f  27/40/7 11/40/7 20/40/7
f  12/40/7 20/40/7 11/40/7
f  22/40/3 16/40/3 26/40/3
f  26/40/4 20/40/4 22/40/4
f  23/40/4 22/40/4 20/40/4

# Mesh 'mesh1_mesh1-geometry' with 190 faces
g mesh1_mesh1-geometry
usemtl material_2_2_8
f  8/11/10 1/7/10 3/40/10
f  1/41/9 24/42/9 4/43/9
f  24/44/7 2/40/7 4/41/7
f  1/7/10 8/11/10 11/10/10
f  24/42/9 1/41/9 25/6/9
f  2/40/7 24/44/7 6/6/7
f  24/45/8 5/40/8 6/2/8
f  8/11/10 26/46/10 11/10/10
f  13/47/9 1/41/9 11/48/9
f  25/6/9 1/41/9 13/47/9
f  5/40/8 24/45/8 25/41/8
f  5/6/7 28/49/7 9/11/7
f  8/11/10 17/50/10 26/46/10
f  11/10/10 26/46/10 27/51/10
f  17/50/10 8/11/10 10/52/10
f  13/47/9 15/11/9 25/6/9
f  25/44/7 29/53/7 5/6/7
f  28/49/7 5/6/7 30/54/7
f  9/11/7 28/49/7 31/55/7
f  20/56/10 11/10/10 27/51/10
f  11/10/10 20/56/10 12/57/10
f  32/58/7 25/44/7 15/48/7
f  29/53/7 25/44/7 33/59/7
f  5/6/7 29/53/7 34/60/7
f  30/54/7 5/6/7 35/61/7
f  36/62/11 28/63/12 30/64/11
f  37/65/12 31/66/13 28/63/12
f  9/11/7 31/55/7 38/67/7
f  9/11/7 15/48/7 18/33/7
f  39/68/7 25/44/7 32/58/7
f  32/58/7 15/48/7 40/69/7
f  33/59/7 25/44/7 39/68/7
f  33/70/14 41/71/15 29/72/15
f  29/72/15 42/73/1 34/74/1
f  43/75/7 5/6/7 34/60/7
f  35/61/7 5/6/7 43/75/7
f  35/76/16 36/62/11 30/64/11
f  28/63/12 36/62/11 37/65/12
f  31/66/13 37/65/12 44/77/13
f  44/77/13 38/78/2 31/66/13
f  9/11/7 38/67/7 45/79/7
f  9/11/7 46/80/7 15/48/7
f  47/81/17 39/82/18 32/83/17
f  40/69/7 15/48/7 48/84/7
f  49/85/19 32/83/17 40/86/19
f  39/82/18 50/87/14 33/70/14
f  41/71/15 33/70/14 50/87/14
f  42/73/1 29/72/15 41/71/15
f  51/88/20 34/74/1 42/73/1
f  34/74/1 51/88/20 43/89/20
f  43/89/20 52/90/16 35/76/16
f  36/62/11 35/76/16 52/90/16
f  36/54/7 47/58/7 37/49/7
f  37/49/7 49/69/7 44/55/7
f  38/78/2 44/77/13 53/91/2
f  53/91/2 45/92/21 38/78/2
f  9/11/7 45/79/7 54/93/7
f  9/11/7 55/94/7 46/80/7
f  56/95/7 15/48/7 46/80/7
f  39/82/18 47/81/17 57/96/18
f  32/83/17 49/85/19 47/81/17
f  48/84/7 15/48/7 58/97/7
f  59/40/9 40/86/19 48/98/9
f  40/86/19 59/40/9 49/85/19
f  50/87/14 39/82/18 57/96/18
f  51/75/7 41/53/7 50/59/7
f  41/53/7 51/75/7 42/60/7
f  52/90/16 43/89/20 51/88/20
f  52/61/7 57/68/7 36/54/7
f  36/54/7 57/68/7 47/58/7
f  37/49/7 47/58/7 49/69/7
f  44/55/7 49/69/7 53/67/7
f  45/92/21 53/91/2 60/99/21
f  60/99/21 54/100/22 45/92/21
f  9/11/7 54/93/7 61/101/7
f  9/11/7 62/102/7 55/94/7
f  55/103/23 63/104/24 46/105/24
f  64/106/7 15/48/7 56/95/7
f  46/105/24 65/107/25 56/108/25
f  58/97/7 15/48/7 66/109/7
f  67/110/26 48/111/9 58/112/26
f  48/111/9 67/110/26 59/113/9
f  53/67/7 49/69/7 59/84/7
f  52/61/7 50/59/7 57/68/7
f  51/75/7 50/59/7 52/61/7
f  53/67/7 67/97/7 60/79/7
f  54/100/22 60/99/21 68/114/22
f  61/101/7 54/93/7 69/115/7
f  9/11/7 61/101/7 70/116/7
f  9/11/7 71/117/7 62/102/7
f  62/118/27 72/119/23 55/103/23
f  63/104/24 55/103/23 72/119/23
f  65/107/25 46/105/24 63/104/24
f  73/120/7 15/48/7 64/106/7
f  56/108/25 74/121/28 64/122/28
f  74/121/28 56/108/25 65/107/25
f  66/109/7 15/48/7 75/123/7
f  76/124/29 58/112/26 66/125/29
f  58/112/26 76/124/29 67/110/26
f  53/67/7 59/84/7 67/97/7
f  60/79/7 67/97/7 68/93/7
f  68/114/22 69/126/30 54/100/22
f  61/101/7 69/115/7 77/127/7
f  61/128/31 78/129/32 70/130/32
f  9/11/7 70/116/7 79/131/7
f  9/11/7 80/132/7 71/117/7
f  71/133/33 81/134/27 62/118/27
f  72/119/23 62/118/27 81/134/27
f  82/135/7 15/48/7 73/120/7
f  64/122/28 83/136/34 73/137/34
f  83/136/34 64/122/28 74/121/28
f  75/123/7 15/48/7 84/138/7
f  85/139/35 66/125/29 75/140/35
f  66/125/29 85/139/35 76/124/29
f  68/93/7 67/97/7 76/109/7
f  69/126/30 68/114/22 86/141/30
f  69/126/30 87/142/36 77/143/36
f  61/101/7 77/127/7 88/144/7
f  78/129/32 61/128/31 89/145/31
f  90/146/37 70/130/32 78/129/32
f  70/130/32 90/146/37 79/147/37
f  9/11/7 79/131/7 91/148/7
f  9/11/7 91/148/7 80/132/7
f  80/149/38 92/150/33 71/133/33
f  81/134/27 71/133/33 92/150/33
f  93/151/7 15/48/7 82/135/7
f  83/136/34 82/152/39 73/137/34
f  84/138/7 15/48/7 94/153/7
f  75/123/7 84/138/7 95/154/7
f  95/155/40 85/139/35 75/140/35
f  68/93/7 76/109/7 85/123/7
f  68/93/7 85/123/7 86/115/7
f  87/142/36 69/126/30 86/141/30
f  96/156/41 77/143/36 87/142/36
f  88/144/7 77/127/7 97/157/7
f  88/158/42 89/145/31 61/128/31
f  98/159/43 79/147/37 90/146/37
f  79/147/37 98/159/43 91/160/43
f  91/160/43 99/161/38 80/149/38
f  92/150/33 80/149/38 99/161/38
f  100/162/7 15/48/7 93/151/7
f  101/113/39 93/163/44 82/152/39
f  82/152/39 83/136/34 101/113/39
f  94/153/7 15/48/7 102/164/7
f  103/91/45 84/165/46 94/166/45
f  95/154/7 84/138/7 104/167/7
f  85/139/35 95/155/40 105/168/40
f  86/115/7 85/123/7 87/127/7
f  77/143/36 96/156/41 97/169/41
f  87/127/7 106/167/7 96/157/7
f  88/144/7 97/157/7 107/170/7
f  89/145/31 88/158/42 108/171/42
f  99/161/38 91/160/43 98/159/43
f  102/164/7 15/48/7 100/162/7
f  109/139/44 100/172/47 93/163/44
f  93/163/44 101/113/39 109/139/44
f  110/141/48 94/166/45 102/173/48
f  84/165/46 103/91/45 111/62/46
f  94/166/45 110/141/48 103/91/45
f  104/167/7 84/138/7 107/170/7
f  104/174/49 105/168/40 95/155/40
f  87/127/7 85/123/7 105/154/7
f  112/175/8 97/169/41 96/156/41
f  87/127/7 105/154/7 106/167/7
f  96/157/7 106/167/7 112/170/7
f  97/169/41 112/175/8 107/176/8
f  88/144/7 107/170/7 113/177/7
f  113/178/50 108/171/42 88/158/42
f  114/175/47 102/173/48 100/172/47
f  100/172/47 109/139/44 114/175/47
f  102/173/48 114/175/47 110/141/48
f  115/73/51 84/165/46 111/62/46
f  107/170/7 84/138/7 116/179/7
f  107/176/8 106/180/49 104/174/49
f  105/168/40 104/174/49 106/180/49
f  106/180/49 107/176/8 112/175/8
f  113/177/7 107/170/7 117/181/7
f  108/171/42 113/178/50 118/182/50
f  84/165/46 115/73/51 116/183/51
f  107/170/7 116/179/7 119/184/7
f  117/181/7 107/170/7 120/185/7
f  117/186/52 118/182/50 113/178/50
f  121/96/53 116/183/51 115/73/51
f  116/183/51 121/96/53 119/187/53
f  107/170/7 119/184/7 120/185/7
f  120/188/54 122/189/52 117/186/52
f  118/182/50 117/186/52 122/189/52
f  123/40/54 119/187/53 121/96/53
f  119/187/53 123/40/54 120/190/54
f  122/189/52 120/188/54 123/191/54

# Mesh 'mesh1_mesh1-geometry' with 203 faces
g mesh1_mesh1-geometry
usemtl material_3_24
f  4//10 2//10 24//10
f  6//10 24//10 2//10
f  6//1 5//1 24//1
f  10//55 7//55 8//55
f  25//1 24//1 5//1
f  9//10 28//10 5//10
f  10//55 9//55 7//55
f  9//55 124//55 7//55
f  7//3 124//3 9//3
f  13//56 12//56 11//56
f  5//10 29//10 25//10
f  30//10 5//10 28//10
f  31//10 28//10 9//10
f  14//55 9//55 10//55
f  124//55 9//55 18//55
f  18//3 9//3 124//3
f  15//56 12//56 13//56
f  17//57 16//57 10//57
f  13//56 18//56 15//56
f  15//4 18//4 13//4
f  15//10 25//10 32//10
f  33//10 25//10 29//10
f  34//10 29//10 5//10
f  35//10 5//10 30//10
f  30//35 28//29 36//35
f  28//29 31//26 37//29
f  38//10 31//10 9//10
f  14//55 18//55 9//55
f  14//57 10//57 16//57
f  18//10 15//10 9//10
f  18//56 13//56 124//56
f  124//4 13//4 18//4
f  15//56 19//56 12//56
f  12//58 19//58 20//58
f  18//56 21//56 15//56
f  32//10 25//10 39//10
f  40//10 15//10 32//10
f  39//10 25//10 33//10
f  29//41 41//41 33//36
f  34//8 42//8 29//41
f  34//10 5//10 43//10
f  43//10 5//10 35//10
f  30//35 36//35 35//40
f  37//29 36//35 28//29
f  44//26 37//29 31//26
f  31//26 38//9 44//26
f  45//10 38//10 9//10
f  18//55 14//55 21//55
f  14//10 16//10 21//10
f  15//10 46//10 9//10
f  22//10 21//10 16//10
f  19//56 15//56 21//56
f  23//58 20//58 19//58
f  32//22 39//30 47//22
f  48//10 15//10 40//10
f  40//21 32//22 49//21
f  33//36 50//36 39//30
f  50//36 33//36 41//41
f  41//41 29//41 42//8
f  42//8 34//8 51//49
f  43//49 51//49 34//8
f  35//40 52//40 43//49
f  52//40 35//40 36//35
f  37//10 47//10 36//10
f  44//10 49//10 37//10
f  53//9 44//26 38//9
f  38//9 45//19 53//9
f  54//10 45//10 9//10
f  46//10 55//10 9//10
f  46//10 15//10 56//10
f  22//10 23//10 21//10
f  19//10 21//10 23//10
f  57//30 47//22 39//30
f  47//22 49//21 32//22
f  58//10 15//10 48//10
f  48//2 40//21 59//2
f  49//21 59//2 40//21
f  57//30 39//30 50//36
f  50//10 41//10 51//10
f  42//10 51//10 41//10
f  51//49 43//49 52//40
f  36//10 57//10 52//10
f  47//10 57//10 36//10
f  49//10 47//10 37//10
f  53//10 49//10 44//10
f  60//19 53//9 45//19
f  45//19 54//17 60//19
f  61//10 54//10 9//10
f  55//10 62//10 9//10
f  46//54 63//54 55//53
f  56//10 15//10 64//10
f  56//52 65//52 46//54
f  66//10 15//10 58//10
f  58//13 48//2 67//13
f  59//2 67//13 48//2
f  59//10 49//10 53//10
f  57//10 50//10 52//10
f  52//10 50//10 51//10
f  60//10 67//10 53//10
f  68//17 60//19 54//17
f  69//10 54//10 61//10
f  70//10 61//10 9//10
f  62//10 71//10 9//10
f  55//53 72//53 62//51
f  72//53 55//53 63//54
f  63//54 46//54 65//52
f  64//10 15//10 73//10
f  64//50 74//50 56//52
f  65//52 56//52 74//50
f  75//10 15//10 66//10
f  66//12 58//13 76//12
f  67//13 76//12 58//13
f  67//10 59//10 53//10
f  68//10 67//10 60//10
f  54//17 69//18 68//17
f  77//10 69//10 61//10
f  70//44 78//44 61//39
f  79//10 70//10 9//10
f  71//10 80//10 9//10
f  62//51 81//51 71//46
f  81//51 62//51 72//53
f  73//10 15//10 82//10
f  73//42 83//42 64//50
f  74//50 64//50 83//42
f  84//10 15//10 75//10
f  75//11 66//12 85//11
f  76//12 85//11 66//12
f  76//10 67//10 68//10
f  86//18 68//17 69//18
f  77//14 87//14 69//18
f  88//10 77//10 61//10
f  89//39 61//39 78//44
f  78//44 70//44 90//47
f  79//47 90//47 70//44
f  91//10 79//10 9//10
f  80//10 91//10 9//10
f  71//46 92//46 80//45
f  92//46 71//46 81//51
f  82//10 15//10 93//10
f  73//42 82//31 83//42
f  94//10 15//10 84//10
f  95//10 84//10 75//10
f  75//11 85//11 95//16
f  85//10 76//10 68//10
f  86//10 85//10 68//10
f  86//18 69//18 87//14
f  87//14 77//14 96//15
f  97//10 77//10 88//10
f  61//39 89//39 88//34
f  90//47 79//47 98//48
f  91//48 98//48 79//47
f  80//45 99//45 91//48
f  99//45 80//45 92//46
f  93//10 15//10 100//10
f  82//31 93//32 101//31
f  101//31 83//42 82//31
f  102//10 15//10 94//10
f  94//38 84//33 103//38
f  104//10 84//10 95//10
f  105//16 95//16 85//11
f  87//10 85//10 86//10
f  97//15 96//15 77//14
f  96//10 106//10 87//10
f  107//10 97//10 88//10
f  108//34 88//34 89//39
f  98//48 91//48 99//45
f  100//10 15//10 102//10
f  93//32 100//37 109//32
f  109//32 101//31 93//32
f  102//43 94//38 110//43
f  111//33 103//38 84//33
f  103//38 110//43 94//38
f  107//10 84//10 104//10
f  95//16 105//16 104//20
f  105//10 85//10 87//10
f  96//15 97//15 112//1
f  106//10 105//10 87//10
f  112//10 106//10 96//10
f  107//1 112//1 97//15
f  113//10 107//10 88//10
f  88//34 108//34 113//28
f  100//37 102//43 114//37
f  114//37 109//32 100//37
f  110//43 114//37 102//43
f  111//33 84//33 115//27
f  116//10 84//10 107//10
f  104//20 106//20 107//1
f  106//20 104//20 105//16
f  112//1 107//1 106//20
f  117//10 107//10 113//10
f  118//28 113//28 108//34
f  116//27 115//27 84//33
f  119//10 116//10 107//10
f  120//10 107//10 117//10
f  113//28 118//28 117//25
f  115//27 116//27 121//23
f  119//23 121//23 116//27
f  120//10 119//10 107//10
f  117//25 122//25 120//24
f  122//25 117//25 118//28
f  121//23 119//23 123//24
f  120//24 123//24 119//23
f  123//24 120//24 122//25

# Mesh 'mesh1_mesh1-geometry' with 5 faces
g mesh1_mesh1-geometry
usemtl material_4_24
f  16//55 26//55 17//55
f  26//56 20//56 27//56
f  26//55 16//55 22//55
f  22//56 20//56 26//56
f  20//56 22//56 23//56

# Mesh 'mesh2_mesh2-geometry' with 1 faces
g mesh2_mesh2-geometry
usemtl material_3_0
l  18 124

